<svg enable-background="new 0 0 512 512" viewBox="0 0 512 512" xmlns="http://www.w3.org/2000/svg"><g id="_x31_7_Benefits"><g><path d="m420.538 147.814 35.796 32.098c90.575 81.219 33.123 231.346-88.534 231.346h-.001c-121.657 0-179.109-150.127-88.534-231.346l35.796-32.098z" fill="#b8daff"/><path d="m433.801 130.928c0 9.325-7.559 16.884-16.884 16.884h-100.561c-9.325 0-16.884-7.559-16.884-16.884 0-9.325 7.559-16.884 16.884-16.884h100.561c9.325 0 16.884 7.559 16.884 16.884z" fill="#fefdfe"/><path d="m433.801 97.16c0 9.325-7.559 16.884-16.884 16.884h-100.561c-9.325 0-16.884-7.559-16.884-16.884 0-9.325 7.559-16.884 16.884-16.884h100.561c9.325 0 16.884 7.559 16.884 16.884z" fill="#fefdfe"/><path d="m423.19 40.638-18.706 39.638h-75.696l-16.371-34.691c-1.491-3.16 1.491-6.579 4.818-5.511 15.813 5.08 44.385 8.737 67.484-3.886 11.382-6.22 24.305-3.849 35.783-1.146 2.474.582 3.772 3.299 2.688 5.596z" fill="#b8daff"/><path d="m348.338 410.135 112.571-1.467c15.05-.204 27.361 11.94 27.361 26.992 0 13.738-10.319 25.285-23.971 26.824l-145.063 16.351c-29.922 3.373-60.297-2.541-86.364-17.612-33.002-19.081-62.235-40.959-87.496-65.786-15.031-14.772-35.083-23.303-56.157-23.303h-11.71v-106.649h106.805c31.145 0 61.195 11.493 84.391 32.277l79.012 70.797c10.635 9.529 12.566 25.463 4.514 37.257-8.421 12.334-24.941 16.066-37.845 8.548l-66.177-38.553" fill="#fefdfe"/><path d="m77.508 251.722v122.771c0 5.384-4.365 9.748-9.748 9.748h-45.528c-5.384 0-9.748-4.365-9.748-9.748v-122.771c0-5.384 4.365-9.748 9.748-9.748h45.528c5.383-.001 9.748 4.364 9.748 9.748z" fill="#b8daff"/><g fill="#3f8cf4"><path d="m459.488 175.07-28.549-25.575c5.636-4.269 9.339-10.966 9.339-18.566 0-6.652-2.826-12.626-7.302-16.884 4.476-4.258 7.302-10.233 7.302-16.884 0-12.882-10.479-23.361-23.361-23.361h-2.216l14.345-30.4c1.359-2.874 1.343-6.163-.035-9.027-1.376-2.854-3.939-4.913-7.023-5.637-12.563-2.955-27.072-5.5-40.372 1.771-19.946 10.894-46.079 8.642-62.392 3.405-3.967-1.29-8.316-.086-11.061 3.046-2.758 3.137-3.388 7.61-1.601 11.39l12.011 25.451h-2.215c-12.882 0-23.361 10.479-23.361 23.361 0 6.652 2.826 12.626 7.302 16.884-4.476 4.258-7.302 10.233-7.302 16.884 0 7.593 3.697 14.284 9.324 18.554l-28.523 25.593c-22.101 19.839-37.017 44.921-43.135 72.532-.774 3.491 1.429 6.952 4.921 7.726 3.514.744 6.952-1.432 7.724-4.923 5.53-24.955 19.065-47.673 39.142-65.696l33.906-30.419h100.533l33.956 30.419c28.198 25.289 43.167 59.483 42.145 96.293-1.037 37.488-18.901 73.685-47.779 96.829-2.79 2.236-3.241 6.315-1.004 9.103 2.243 2.801 6.321 3.236 9.105 1.007 31.811-25.496 51.486-65.337 52.627-106.579 1.126-40.676-15.369-78.427-46.451-106.297zm-138.865-127.273c19.384 5.024 45.733 5.804 67.204-5.925 8.419-4.604 18.423-3.35 28.191-1.214l-15.638 33.141h-67.485zm-14.674 49.363c0-5.738 4.67-10.408 10.408-10.408h100.56c5.738 0 10.408 4.67 10.408 10.408s-4.67 10.408-10.408 10.408h-100.56c-5.737 0-10.408-4.67-10.408-10.408zm110.969 23.361c5.738 0 10.408 4.67 10.408 10.408s-4.67 10.408-10.408 10.408h-100.56c-5.738 0-10.408-4.67-10.408-10.408s4.67-10.408 10.408-10.408z"/><path d="m367.226 333.999c-.21-.021-.392-.123-.607-.123-.211 0-.39.101-.595.12-12.957-.334-23.408-10.925-23.408-23.962 0-3.577-2.899-6.477-6.477-6.477-3.577 0-6.477 2.899-6.477 6.477 0 18.172 13.183 33.287 30.48 36.369v4.362c0 3.577 2.899 6.477 6.477 6.477 3.577 0 6.477-2.899 6.477-6.477v-4.356c17.315-3.068 30.518-18.191 30.518-36.375 0-20.391-16.588-36.977-36.977-36.977-.19 0-.349.092-.534.108-12.994-.292-23.487-10.906-23.487-23.97 0-13.246 10.775-24.019 24.021-24.019s24.024 10.772 24.024 24.019c0 3.577 2.899 6.477 6.477 6.477 3.577 0 6.477-2.899 6.477-6.477 0-18.173-13.195-33.292-30.5-36.367v-13.042c0-3.577-2.899-6.477-6.477-6.477-3.577 0-6.477 2.899-6.477 6.477v13.042c-17.305 3.075-30.498 18.194-30.498 36.367 0 20.391 16.586 36.977 36.974 36.977.19 0 .349-.092.534-.108 12.994.292 23.489 10.906 23.489 23.97 0 13.045-10.466 23.644-23.434 23.965z"/><path d="m460.827 402.193-99.976 1.305c5.758-13.515 2.469-29.655-8.814-39.76l-79.011-70.796c-24.421-21.884-55.926-33.936-88.713-33.936h-100.328v-7.286c0-8.946-7.278-16.222-16.224-16.222h-45.528c-8.946 0-16.224 7.276-16.224 16.222v122.77c0 8.946 7.278 16.227 16.224 16.227h45.528c7.514 0 13.793-5.162 15.629-12.108h5.827c19.217 0 37.549 7.615 51.62 21.448 25.314 24.879 55.189 47.339 88.794 66.769 25.952 15.01 57.909 22.101 90.332 18.443l145.066-16.348c16.943-1.918 29.719-16.217 29.719-33.263-.001-18.126-14.422-33.443-33.921-33.465zm-389.795-27.702c0 1.806-1.467 3.274-3.271 3.274h-45.528c-1.804 0-3.271-1.467-3.271-3.274v-122.77c0-1.801 1.467-3.269 3.271-3.269h45.528c1.804 0 3.271 1.467 3.271 3.269v13.763zm392.542 81.559-145.064 16.348c-28.795 3.258-58.063-2.717-82.398-16.783-32.658-18.883-61.661-40.681-86.196-64.795-16.507-16.227-38.065-25.162-60.7-25.162h-5.232v-93.698h100.328c29.592 0 58.028 10.879 80.071 30.627l79.011 70.796c8.184 7.332 9.682 19.708 3.489 28.78-6.56 9.592-19.431 12.315-29.238 6.603l-66.177-38.55c-3.097-1.796-7.056-.754-8.857 2.338s-.754 7.053 2.335 8.855l66.177 38.55c12.923 7.529 28.96 5.793 39.992-3.38l109.883-1.432c.099 0 .195-.005.291-.005 11.285 0 20.505 9.139 20.505 20.517 0 10.448-7.832 19.217-18.22 20.391z"/></g></g></g><g id="Layer_1"/></svg>