<svg enable-background="new 0 0 512 512" viewBox="0 0 512 512" xmlns="http://www.w3.org/2000/svg"><g id="_x31_0_Goal_setting"><g><path d="m388.371 36.836v342.595c0 13.45-10.903 24.353-24.353 24.353h-269.848c-13.45 0-24.353-10.903-24.353-24.353v-342.595c0-13.45 10.903-24.353 24.353-24.353h269.848c13.45 0 24.353 10.903 24.353 24.353z" fill="#b8daff"/><path d="m340.909 140.723v286.273c0 13.621-11.042 24.664-24.664 24.664h-269.226c-13.621 0-24.664-11.042-24.664-24.664v-341.973c0-13.621 11.042-24.664 24.664-24.664h213.526c31.254 31.255 49.11 49.11 80.364 80.364z" fill="#fefdfe"/><path d="m340.909 140.723h-67.073c-7.34 0-13.29-5.95-13.29-13.29v-67.073c26.787 26.788 53.575 53.576 80.363 80.363z" fill="#b8daff"/><path d="m111.011 293.152c0 12.542-10.125 22.666-22.666 22.666-12.467 0-22.591-10.125-22.591-22.666 0-12.467 10.125-22.591 22.591-22.591 12.542 0 22.666 10.125 22.666 22.591z" fill="#b8daff"/><path d="m111.011 200.084c0 12.542-10.125 22.666-22.666 22.666-12.467 0-22.591-10.125-22.591-22.666 0-12.467 10.125-22.591 22.591-22.591 12.542-.001 22.666 10.124 22.666 22.591z" fill="#b8daff"/><path d="m111.011 382.68c0 12.542-10.125 22.666-22.666 22.666-12.467 0-22.591-10.125-22.591-22.666 0-12.467 10.125-22.591 22.591-22.591 12.542 0 22.666 10.124 22.666 22.591z" fill="#b8daff"/><path d="m453.049 407.266c0 50.932-41.319 92.251-92.251 92.251s-92.189-41.319-92.189-92.251c0-50.931 41.257-92.188 92.189-92.188 50.931-.001 92.251 41.256 92.251 92.188z" fill="#fefdfe"/><path d="m420.317 407.277c0 32.855-26.654 59.508-59.508 59.508-32.855 0-59.468-26.654-59.468-59.508s26.614-59.468 59.468-59.468 59.508 26.613 59.508 59.468z" fill="#b8daff"/><path d="m387.759 407.288c0 14.873-12.066 26.939-26.939 26.939s-26.921-12.066-26.921-26.939 12.048-26.921 26.921-26.921 26.939 12.048 26.939 26.921z" fill="#fefdfe"/><g fill="#3f8cf4"><path d="m364.018 6.007h-269.837c-17.001 0-30.829 13.831-30.829 30.829v17.046h-16.318c-17.168 0-31.138 13.967-31.138 31.138v341.96c0 17.17 13.97 31.138 31.138 31.138h204.4c3.577 0 6.477-2.899 6.477-6.477 0-3.577-2.899-6.477-6.477-6.477h-204.4c-10.028 0-18.185-8.159-18.185-18.185v-341.959c0-10.026 8.156-18.185 18.185-18.185h207.036v60.598c0 10.899 8.865 19.766 19.763 19.766h60.601v143.67c0 3.577 2.899 6.477 6.477 6.477 3.577 0 6.477-2.899 6.477-6.477v-150.151c0-1.26-.649-3.291-1.862-4.527-2.641-2.69-81.058-81.048-80.446-80.446-1.162-1.143-3.105-1.863-4.527-1.863h-184.248v-17.046c0-9.856 8.02-17.876 17.876-17.876h269.838c9.856 0 17.876 8.02 17.876 17.876v255.587c0 3.577 2.899 6.477 6.477 6.477 3.577 0 6.477-2.899 6.477-6.477v-255.587c-.001-16.998-13.83-30.829-30.831-30.829zm-90.185 128.24c-3.754 0-6.81-3.056-6.81-6.813v-51.44l58.253 58.253z"/><path d="m157.124 92.071c0-3.577-2.899-6.477-6.477-6.477h-95.75c-3.577 0-6.477 2.899-6.477 6.477s2.899 6.477 6.477 6.477h95.751c3.577 0 6.476-2.9 6.476-6.477z"/><path d="m109.249 120.049c0-3.577-2.899-6.477-6.477-6.477h-47.875c-3.577 0-6.477 2.899-6.477 6.477s2.899 6.477 6.477 6.477h47.876c3.577 0 6.476-2.9 6.476-6.477z"/><path d="m88.347 264.086c-16.029 0-29.068 13.039-29.068 29.066 0 16.07 13.039 29.144 29.068 29.144 16.07 0 29.139-13.074 29.139-29.144 0-16.027-13.069-29.066-29.139-29.066zm0 45.257c-8.885 0-16.115-7.263-16.115-16.191 0-8.885 7.23-16.113 16.115-16.113 8.925 0 16.186 7.228 16.186 16.113 0 8.927-7.261 16.191-16.186 16.191z"/><path d="m282.212 281.769c0-3.577-2.899-6.477-6.477-6.477h-133.036c-3.577 0-6.477 2.899-6.477 6.477 0 3.577 2.899 6.477 6.477 6.477h133.037c3.577 0 6.476-2.899 6.476-6.477z"/><path d="m142.699 311.086h62.807c3.577 0 6.477-2.899 6.477-6.477s-2.899-6.477-6.477-6.477h-62.807c-3.577 0-6.477 2.899-6.477 6.477s2.9 6.477 6.477 6.477z"/><path d="m88.347 171.016c-16.029 0-29.068 13.039-29.068 29.068 0 16.07 13.039 29.142 29.068 29.142 16.07 0 29.139-13.072 29.139-29.142 0-16.029-13.069-29.068-29.139-29.068zm0 45.257c-8.885 0-16.115-7.263-16.115-16.189 0-8.885 7.23-16.115 16.115-16.115 8.925 0 16.186 7.23 16.186 16.115 0 8.926-7.261 16.189-16.186 16.189z"/><path d="m282.212 188.703c0-3.577-2.899-6.477-6.477-6.477h-133.036c-3.577 0-6.477 2.899-6.477 6.477s2.899 6.477 6.477 6.477h133.037c3.577-.001 6.476-2.9 6.476-6.477z"/><path d="m142.699 205.063c-3.577 0-6.477 2.899-6.477 6.477s2.899 6.477 6.477 6.477h62.807c3.577 0 6.477-2.899 6.477-6.477s-2.899-6.477-6.477-6.477z"/><path d="m88.347 353.613c-16.029 0-29.068 13.039-29.068 29.066 0 16.07 13.039 29.144 29.068 29.144 16.07 0 29.139-13.074 29.139-29.144 0-16.027-13.069-29.066-29.139-29.066zm0 45.257c-8.885 0-16.115-7.263-16.115-16.191 0-8.885 7.23-16.113 16.115-16.113 8.925 0 16.186 7.228 16.186 16.113 0 8.928-7.261 16.191-16.186 16.191z"/><path d="m245.276 371.297c0-3.577-2.899-6.477-6.477-6.477h-96.1c-3.577 0-6.477 2.899-6.477 6.477 0 3.577 2.899 6.477 6.477 6.477h96.1c3.577-.001 6.477-2.9 6.477-6.477z"/><path d="m142.699 387.66c-3.577 0-6.477 2.899-6.477 6.477s2.899 6.477 6.477 6.477h62.807c3.577 0 6.477-2.899 6.477-6.477s-2.899-6.477-6.477-6.477z"/><path d="m360.795 308.601c-54.403 0-98.66 44.26-98.66 98.663 0 54.438 44.258 98.729 98.66 98.729 54.443 0 98.731-44.291 98.731-98.729 0-27.623-11.452-52.595-29.819-70.522l7.452-8.712 27.224-1.09c3.577-.144 6.355-3.157 6.213-6.729-.147-3.572-3.097-6.312-6.729-6.213l-15.226.61 15.082-17.631 26.162-1.047c3.577-.144 6.355-3.157 6.213-6.729s-3.178-6.241-6.729-6.213l-14.164.568 11.998-14.027c2.322-2.717 2.004-6.805-.713-9.13-2.722-2.33-6.815-2.006-9.133.711l-12.495 14.607-.64-15.938c-.142-3.567-3.178-6.299-6.729-6.211-3.577.144-6.355 3.157-6.213 6.732l1.199 29.894-13.163 15.389-.594-14.792c-.147-3.57-3.097-6.267-6.729-6.211-3.577.144-6.355 3.157-6.213 6.732l1.153 28.748-7.106 8.307c-16.49-12.353-36.885-19.766-59.032-19.766zm85.779 98.663c0 47.296-38.48 85.776-85.778 85.776-47.258 0-85.707-38.48-85.707-85.776 0-47.261 38.449-85.71 85.707-85.71 18.936 0 36.399 6.237 50.605 16.66l-12.864 15.038c-10.704-7.488-23.697-11.92-37.726-11.92-36.36 0-65.944 29.582-65.944 65.944 0 36.385 29.585 65.984 65.944 65.984 36.385 0 65.984-29.6 65.984-65.984 0-17.688-7.041-33.737-18.424-45.592l12.926-15.111c15.602 15.53 25.277 37.001 25.277 60.691zm-65.292.023c0 11.283-9.178 20.464-20.462 20.464-11.273 0-20.447-9.181-20.447-20.464 0-11.273 9.173-20.444 20.447-20.444 2.719 0 5.304.557 7.68 1.523l-12.593 14.722c-2.322 2.717-2.004 6.805.713 9.13 2.703 2.316 6.799 2.019 9.133-.711l12.555-14.677c1.847 3.071 2.974 6.622 2.974 10.457zm-4.09-29.082c-4.844-2.735-10.423-4.315-16.371-4.315-18.418 0-33.4 14.982-33.4 33.397 0 18.425 14.982 33.417 33.4 33.417 18.423 0 33.415-14.992 33.415-33.417 0-7.797-2.709-14.962-7.206-20.651l12.87-15.045c8.628 9.428 13.943 21.933 13.943 35.687 0 29.24-23.791 53.031-53.031 53.031-29.22 0-52.991-23.791-52.991-53.031 0-29.22 23.771-52.991 52.991-52.991 10.817 0 20.878 3.268 29.275 8.846z"/></g></g></g><g id="Layer_1"/></svg>