<svg clip-rule="evenodd" fill-rule="evenodd" stroke-linejoin="round" stroke-miterlimit="2" viewBox="0 0 510 510" xmlns="http://www.w3.org/2000/svg"><g><path d="m316.581 154.877 130.458-131.42c10.914-10.97 28.726-11.026 39.696-.113 10.97 10.914 11.027 28.669.113 39.696-37.377 37.717-112.816 114.003-150.362 151.55-10.971 10.97-28.783 10.97-39.753 0l-62.258-62.315c-10.97-10.97-10.97-28.725 0-39.752 10.97-10.97 28.783-10.97 39.753 0z" fill="#9bc9ff"/><path d="m59.237 348.665 65.671 116.021c3.169 5.614 1.173 12.8-4.416 15.969l-22.356 12.65c-5.589 3.169-12.775 1.173-15.969-4.441l-65.646-116.022c-3.194-5.614-1.197-12.8 4.416-15.969l22.332-12.65c5.614-3.168 12.799-1.172 15.968 4.442z" fill="#9bc9ff"/><path d="m125.251 449.023 6.277 11.091c.004.006.008.013.011.02 5.311 9.446 1.943 21.499-7.449 26.803l-22.256 12.615c-.009.005-.017.009-.025.014-9.445 5.31-21.499 1.943-26.806-7.454l-65.449-115.647c-5.359-9.454-1.991-21.519 7.413-26.83l22.283-12.615.006-.004c9.4-5.309 21.458-1.972 26.81 7.428l.011.018 5.087 8.989 58.186-33.688c17.551-10.15 35.485-16.766 54.762-10.506 18.735 6.075 49.32 19.17 80.534 24.81.353.064.701.152 1.042.262 15.814 5.12 25.426 21.108 21.108 37.166-.643 2.393-1.487 4.622-2.522 6.672 3.311-.961 6.553-2.351 9.741-4.209l79.36-46.22c28.727-16.735 47.879-14.911 58.72-7.638 9.34 6.266 13.669 16.964 13.39 27.467-.282 10.611-5.34 20.746-13.662 25.872l-144.002 88.66c-15.176 9.366-31.799 11.565-49.019 6.971l-.009-.003-101.258-27.137zm-7.656 18.956-65.435-115.622-.005-.009c-1.01-1.757-3.266-2.396-5.029-1.401l-22.276 12.612-.007.004c-1.757.992-2.37 3.248-1.369 5.012l.002.005 65.452 115.652.003.006c.996 1.762 3.259 2.376 5.031 1.384l22.239-12.604.01-.006c1.763-.996 2.377-3.26 1.384-5.033zm-.224-32.881 15.033-8.681c1.838-1.061 4.022-1.349 6.072-.8l104.452 27.994c12.816 3.418 25.196 1.843 36.49-5.128l.007-.004 144.008-88.664c3.698-2.278 5.61-6.864 5.996-11.552.597-7.237-2.788-15.235-11.74-17.11-8.387-1.758-20.188 1.047-36.26 10.41l-79.358 46.219c-12.749 7.429-26.111 9.484-40.674 7.166-.009-.001-.018-.003-.027-.004l-9.839-1.601c-.003-.001-34.868-9.151-53.302-14.105-4.264-1.146-6.795-5.538-5.649-9.802s5.538-6.796 9.802-5.65c17.999 4.837 34.223 10.142 51.697 13.753 8.796.973 15.241-2.66 17.264-10.195l.001-.004c2.05-7.62-2.726-15.005-10.127-17.634-31.81-5.84-62.947-19.038-82.043-25.23l-.003-.001c-14.795-4.805-28.34 1.348-41.811 9.139l-58.315 33.762zm-73.463-70.633c5.051-.751 9.742 2.737 10.493 7.788.722 5.051-2.766 9.772-7.817 10.494-5.052.751-9.742-2.767-10.494-7.818-.721-5.051 2.766-9.742 7.818-10.464zm395.752-241.689c3.802 13.546 5.838 27.829 5.838 42.583 0 86.896-70.549 157.445-157.445 157.445-86.895 0-157.444-70.549-157.444-157.445 0-30.084 8.457-58.209 23.119-82.126l-17.03-18.481c-2.103-2.282-2.697-5.574-1.524-8.446 1.174-2.873 3.902-4.808 7.001-4.965l39.493-2.007c28.028-25.716 65.387-41.419 106.385-41.419 45.171 0 85.924 19.061 114.646 49.574l38.663-38.947.006-.006c14.024-14.097 36.912-14.166 51.009-.142 14.093 14.02 14.177 36.829.157 50.994l-.004.004c-13.739 13.864-32.619 32.938-52.87 53.384zm-48.24-53.924c-25.824-27.644-62.591-44.937-103.367-44.937-29.176 0-56.301 8.854-78.832 24.019l5.047-.257c2.374-.12 4.678.821 6.289 2.569 1.61 1.748 2.361 4.121 2.047 6.477l-.412 3.094c19.105-11.954 41.682-18.867 65.861-18.867 36.098 0 68.627 15.405 91.36 39.997zm-23.291 23.462c-19.831-21.724-48.373-35.364-80.076-35.364-26.092 0-50.044 9.239-68.759 24.621l-6.222 46.706c-.41 3.076-2.561 5.637-5.52 6.572-2.958.935-6.191.075-8.293-2.207l-10.332-11.212c-5.967 13.431-9.282 28.296-9.282 43.929 0 59.833 48.576 108.409 108.408 108.409 59.497 0 107.864-48.033 108.405-107.403-20.768 20.935-40.214 40.501-54.316 54.603-14.092 14.092-36.974 14.092-51.066 0l-62.258-62.315c-14.088-14.088-14.102-36.89-.014-51.051l.014-.015c14.093-14.092 36.974-14.092 51.066 0l36.676 36.676zm43.517 58.735c.539 4.696.816 9.471.816 14.31 0 68.663-55.745 124.409-124.409 124.409-68.663 0-124.408-55.746-124.408-124.409 0-22.426 5.948-43.474 16.348-61.653.219-.4.474-.785.766-1.15.496-.623 1.074-1.156 1.708-1.593 1.111-.769 2.369-1.222 3.653-1.365 1.283-.145 2.61.018 3.864.521.715.285 1.397.677 2.019 1.175.364.29.697.607.999.947l6.462 7.014 6.01-45.11s-45.45 2.309-45.45 2.309l9.553 10.367c.362.378.682.787.958 1.219.726 1.133 1.136 2.405 1.234 3.694.101 1.289-.108 2.609-.651 3.841-.206.468-.458.92-.757 1.348-15.003 22.452-23.752 49.431-23.752 78.436 0 78.065 63.379 141.445 141.444 141.445 78.066 0 141.445-63.38 141.445-141.445 0-10.03-1.046-19.819-3.035-29.262-4.924 4.97-9.88 9.971-14.817 14.952zm-80.817 58.605c22.971-22.972 135.859-136.915 150.333-151.521 7.807-7.888 7.778-20.59-.069-28.396-7.843-7.803-20.578-7.76-28.381.082l-130.453 131.415c-1.499 1.509-3.536 2.36-5.663 2.364-2.127.003-4.168-.84-5.672-2.344l-42.353-42.353c-7.846-7.846-20.583-7.848-28.432-.007-7.844 7.893-7.856 20.596-.007 28.446l62.258 62.314c7.848 7.848 20.591 7.848 28.439 0z" fill="#69f"/></g></svg>