<svg enable-background="new 0 0 512 512" height="512" viewBox="0 0 512 512" width="512" xmlns="http://www.w3.org/2000/svg"><g id="_x32_4_Face_To_Face"><g><g><path d="m8.979 484.599c-9.818-45.704 7.048-95.698 41.173-127.648s83.967-45.529 129.998-37.377c25.027 4.432 49.406 15.25 67.151 33.447 33.14 33.983 37.616 84.519 40.226 131.913z" fill="#94c1ff"/><path d="m73.482 212.749c-11.15 30.234-1.105 67.028 23.862 87.401s63.028 22.835 90.411 5.848 42.085-52.181 34.923-83.599c-7.083-31.073-37.804-59.454-70.231-62.077-32.8-2.652-67.894 22.407-78.965 52.427z" fill="#fff"/><path d="m505.783 486.218-218.299-1.284c-2.296-40.864-6.147-84.969-28.706-117.862 2.972-3.512 6.214-6.957 9.659-10.131 34.109-31.948 83.956-45.524 129.953-37.352 25.058 4.39 49.441 15.265 67.205 33.433 33.097 33.975 37.622 85.848 40.188 133.196" fill="#d7e9ff"/></g><g fill="#116fff"><path d="m400.642 314.749c2.781-1.292 5.51-2.705 8.128-4.329 29.236-18.132 44.904-55.637 37.251-89.175-7.811-34.303-40.706-63.344-74.877-66.109-34.196-2.762-71.904 22.279-84.274 55.812-11.902 32.273-1.194 71.483 25.461 93.233 6.51 5.312 13.877 9.412 21.677 12.419-25.912 6.218-50.066 18.688-69.097 36.513-1.933 1.779-3.845 3.714-5.738 5.731-2.533-3.25-5.193-6.431-8.146-9.459-21.462-22.009-48.866-31-68.576-34.674 2.754-1.283 5.457-2.683 8.05-4.292 29.231-18.132 44.899-55.637 37.251-89.175-7.821-34.306-40.711-63.344-74.882-66.109-34.207-2.739-71.904 22.282-84.269 55.812-11.902 32.275-1.199 71.485 25.455 93.233 6.516 5.317 13.891 9.421 21.7 12.428-25.93 6.225-50.106 18.702-69.16 36.542-35.995 33.703-52.761 85.73-42.704 132.54.513 2.396 2.632 4.109 5.082 4.111 10.488.034-83.661-.273 496.781 1.619h.03c3.002 0 5.356-2.526 5.199-5.486-2.841-52.331-8.162-102.152-41.667-136.552-16.96-17.34-41.322-29.585-68.675-34.633zm-104.006-100.197c10.677-28.949 44.472-51.409 73.663-49.043 29.409 2.381 58.824 28.421 65.577 58.049 6.693 29.343-7.018 62.155-32.596 78.021-25.567 15.858-61.049 13.569-84.376-5.461-23.315-19.028-32.681-53.331-22.268-81.566zm-218.27 0s0 0 0-.003c10.154-27.544 41.184-49.211 69.374-49.211 1.438 0 2.866.056 4.284.17 29.409 2.381 58.824 28.421 65.583 58.049 6.688 29.343-7.023 62.155-32.596 78.021-25.572 15.861-61.055 13.571-84.381-5.461-23.316-19.024-32.676-53.33-22.264-81.565zm-24.657 146.197c32.291-30.235 80.396-44.055 125.529-36.051 18.295 3.24 44.304 11.414 64.337 31.955 30.468 31.242 35.733 79.279 38.388 123.07l-268.701-.323c-7.501-42.226 8.11-88.378 40.447-118.651zm238.721 119.009c-2.432-41.41-7.053-80.957-27.12-112.252 2.189-2.422 4.424-4.685 6.684-6.767 32.286-30.243 80.376-44.038 125.499-36.026 25.791 4.52 48.655 15.866 64.373 31.94 29.846 30.642 35.594 76.092 38.409 124.327z"/><path d="m451.742 20.579c-.005 0-.01 0-.015 0-62.577.199-189.031.354-249.468.551-1.418.005-2.775.587-3.75 1.616-.981 1.027-1.499 2.409-1.433 3.824 1.594 34.946 1.261 70.114 2.805 105.232.061 1.405.691 2.724 1.738 3.659 1.057.935 2.429 1.385 3.842 1.304 9.61-.704 20.16-1.278 32.108-1.746.02 11.803.112 23.634.198 35.429.015 2.015 1.189 3.837 3.019 4.683 1.8.841 3.962.573 5.524-.727 16.089-13.449 32.321-26.047 48.075-40.277 35.218.14 127.262 1.235 157.561 2.645 1.413.028 2.8-.45 3.832-1.431 1.027-.978 1.611-2.333 1.616-3.753.104-34.668-.596-70.742-.447-105.783.01-2.876-2.322-5.226-5.205-5.226zm-35.313 104.727 30.248-61.772c.004.551.163 33.563.181 36.333l-12.637 25.873c-5.415-.15-11.397-.295-17.792-.434zm30.192-73.487-35.929 73.367c-5.724-.117-11.699-.228-17.819-.334l45.902-93.827c2.654-.008 5.258-.015 7.747-.023-.014 6.894.066 13.877.099 20.817zm-77.393 72.661 45.713-93.395c6.289-.015 12.315-.03 18.033-.045l-45.846 93.715c-5.912-.097-11.909-.189-17.9-.275zm-23.657-.31 45.536-93.033c6.181-.013 12.195-.026 18.033-.039l-45.667 93.301c-6.052-.082-12.054-.159-17.902-.229zm-23.634-.252 45.339-92.732c6.106-.012 12.126-.024 18.03-.036l-45.498 92.954c-6.234-.072-12.229-.133-17.871-.186zm-23.713-.181 45.269-92.507c6.039-.011 12.041-.023 17.984-.034l-45.308 92.669c-6.727-.058-12.791-.101-17.945-.128zm-89.617-59.931 15.806-32.332c5.738-.015 11.764-.029 18.033-.043l-33.154 67.732c-.258-12.104-.253-13.914-.685-35.357zm10.006-32.316-10.263 20.994c-.173-6.969-.363-13.963-.642-20.963 3.467-.011 7.124-.021 10.905-.031zm-9.021 78.902 38.656-78.973c5.826-.013 11.842-.026 17.986-.039l-45.961 94.028c-3.507.189-6.937.387-10.212.603-.203-5.208-.329-10.414-.469-15.619zm16.624 14.707 45.817-93.731c5.91-.011 11.931-.024 18.027-.036l-45.682 93.393c-.52-.171-1.054-.313-1.61-.313-.061 0-.122 0-.183.003-5.76.205-11.188.434-16.369.684zm21.755 4.518c0-.097-.051-.182-.057-.277l47.944-98.019c5.947-.011 11.95-.023 17.98-.034l-60.626 123.947c-1.705 1.393-3.408 2.784-5.12 4.187-.065-9.936-.121-19.881-.121-29.804zm14.9 17.716 56.767-116.058c.83-.001 15.972-.03 18.056-.034l-45.252 92.47c-.014 0-.031 0-.045 0-.005 0-.01 0-.015 0-1.296 0-2.551.485-3.507 1.359-8.53 7.784-17.113 14.967-26.004 22.263zm177.058-21.425 6.99-14.311c.02 4.844.079 9.732.076 14.552-2.168-.082-4.535-.162-7.066-.241z"/><path d="m66.846 370.611c25.699-20.973 57.756-26.594 80.122-27.615 1.438-.066 2.546-1.283 2.48-2.719-.061-1.431-1.021-2.566-2.714-2.48-23.153 1.057-56.379 6.909-83.181 28.784-24.708 20.173-38.094 51.424-34.1 79.619.183 1.298 1.296 2.236 2.571 2.236 1.597 0 2.804-1.41 2.582-2.968-3.746-26.426 8.908-55.81 32.24-74.857z"/><path d="m239.535 401.308c-.757-1.222-2.358-1.586-3.588-.826-1.215.762-1.586 2.368-.823 3.585 9.976 15.952 15.19 34.956 14.799 53.772h-101.248c-1.438 0-2.602 1.164-2.602 2.602s1.164 2.602 2.602 2.602c5.126-.002-26.912.012 103.814-.046 1.367-.028 2.485-1.11 2.546-2.48.971-20.652-4.533-41.681-15.5-59.209z"/><path d="m362.945 346.855c-23.707.915-47.115 9.399-65.913 23.893-1.138.877-1.347 2.51-.468 3.649.872 1.142 2.519 1.348 3.649.473 17.944-13.841 40.295-21.941 62.935-22.815 1.433-.056 2.556-1.263 2.5-2.699-.055-1.434-1.015-2.618-2.703-2.501z"/><path d="m399.027 463.58c-1.433.051-2.556 1.258-2.505 2.693.051 1.405 1.21 2.508 2.602 2.508.03 0 .061 0 .097-.003l76.722-2.805c.752-.028 1.459-.381 1.931-.971.473-.59.666-1.354.534-2.099l-5.316-28.893c-.264-1.418-1.611-2.368-3.034-2.089-1.413.259-2.348 1.616-2.089 3.029l4.772 25.933z"/><path d="m108.777 355.596c-12.202 4.505-30.034 11.996-43.984 25.001-13.843 12.901-21.72 29.564-21.624 45.715.01 1.433 1.174 2.587 2.602 2.587h.015c1.438-.008 2.597-1.182 2.587-2.617-.091-14.702 7.186-29.966 19.967-41.878 10.098-9.412 23.519-17.014 42.236-23.923 1.352-.498 2.038-1.995 1.54-3.344-.493-1.348-2.008-2.036-3.339-1.541z"/><path d="m45.832 431.795c-1.438 0-2.602 1.164-2.602 2.602v4.993c0 1.438 1.164 2.602 2.602 2.602s2.602-1.164 2.602-2.602v-4.993c0-1.439-1.164-2.602-2.602-2.602z"/><path d="m347.024 358.899c-11.196 3.474-22.213 7.841-32.748 12.987-1.291.63-1.824 2.188-1.194 3.479.629 1.287 2.18 1.83 3.481 1.197 10.296-5.029 21.065-9.297 32.006-12.692 1.372-.427 2.14-1.883 1.713-3.255-.423-1.373-1.861-2.14-3.258-1.716z"/><path d="m309.483 376.523-4.996 2.221c-1.311.582-1.906 2.119-1.321 3.433s2.117 1.905 3.435 1.324l4.996-2.221c1.311-.582 1.906-2.119 1.321-3.433-.584-1.318-2.124-1.9-3.435-1.324z"/></g></g></g></svg>