<svg enable-background="new 0 0 512 512" viewBox="0 0 512 512" xmlns="http://www.w3.org/2000/svg"><g id="_x32_4_Doucment"><g><path d="m460.833 52.14v363.904c0 21.894-17.749 39.643-39.643 39.643h-290.717c-21.894 0-39.643-17.749-39.643-39.643v-363.904c0-21.894 17.749-39.643 39.643-39.643h290.717c21.894-.001 39.643 17.748 39.643 39.643z" fill="#b8daff"/><path d="m421.19 142.833v311.95c0 24.701-20.024 44.726-44.726 44.726h-280.551c-24.701 0-44.726-20.024-44.726-44.726v-353.739c0-24.701 20.024-44.726 44.726-44.726h239.158c28.744 28.801 57.431 57.658 86.119 86.515z" fill="#fefdfe"/><path d="m421.19 142.833h-65.536c-11.368 0-20.584-9.216-20.584-20.584v-65.931c28.745 28.801 57.432 57.658 86.12 86.515z" fill="#b8daff"/><path d="m194.851 106.917v18.636c0 4.054-3.287 7.341-7.341 7.341h-89.338c-4.054 0-7.341-3.287-7.341-7.341v-18.636c0-4.054 3.287-7.341 7.341-7.341h89.338c4.054 0 7.341 3.287 7.341 7.341z" fill="#b8daff"/><g fill="#3f8cf4"><path d="m442.852 441.144c-2.707 2.338-3.005 6.431-.663 9.133 1.28 1.482 3.086 2.241 4.903 2.241 1.498 0 3.005-.521 4.23-1.579 10.149-8.773 15.968-21.493 15.968-34.896v-363.913c0-25.424-20.683-46.113-46.108-46.113h-290.707c-15.649 0-30.054 7.807-38.539 20.881-1.948 3-1.093 7.013 1.907 8.96 3.01 1.933 7.018 1.093 8.96-1.907 6.087-9.38 16.428-14.981 27.671-14.981h290.707c18.28 0 33.155 14.875 33.155 33.16v363.914c.001 9.638-4.188 18.786-11.484 25.1z"/><path d="m288.014 425.718h-195.476c-3.577 0-6.476 2.899-6.476 6.476s2.899 6.476 6.476 6.476h195.476c3.577 0 6.476-2.899 6.476-6.476s-2.899-6.476-6.476-6.476z"/><path d="m378.13 425.718h-57.588c-3.577 0-6.476 2.899-6.476 6.476s2.899 6.476 6.476 6.476h57.588c3.577 0 6.476-2.899 6.476-6.476s-2.899-6.476-6.476-6.476z"/><path d="m294.491 315.581c0-3.577-2.899-6.476-6.476-6.476h-195.477c-3.577 0-6.476 2.899-6.476 6.476s2.899 6.476 6.476 6.476h195.476c3.577.001 6.477-2.899 6.477-6.476z"/><path d="m378.13 309.105h-57.588c-3.577 0-6.476 2.899-6.476 6.476s2.899 6.476 6.476 6.476h57.588c3.577 0 6.476-2.899 6.476-6.476s-2.899-6.476-6.476-6.476z"/><path d="m378.13 367.411h-195.476c-3.577 0-6.476 2.899-6.476 6.476s2.899 6.476 6.476 6.476h195.476c3.577 0 6.476-2.899 6.476-6.476 0-3.576-2.899-6.476-6.476-6.476z"/><path d="m92.538 367.411c-3.577 0-6.476 2.899-6.476 6.476s2.899 6.476 6.476 6.476h57.588c3.577 0 6.476-2.899 6.476-6.476s-2.899-6.476-6.476-6.476z"/><path d="m378.13 250.799h-195.476c-3.577 0-6.476 2.899-6.476 6.476s2.899 6.476 6.476 6.476h195.476c3.577 0 6.476-2.899 6.476-6.476s-2.899-6.476-6.476-6.476z"/><path d="m150.126 250.799h-57.588c-3.577 0-6.476 2.899-6.476 6.476s2.899 6.476 6.476 6.476h57.588c3.577 0 6.476-2.899 6.476-6.476.001-3.577-2.899-6.476-6.476-6.476z"/><path d="m379.84 192.487h-287.302c-3.577 0-6.476 2.899-6.476 6.476s2.899 6.476 6.476 6.476h287.302c3.577 0 6.476-2.899 6.476-6.476s-2.899-6.476-6.476-6.476z"/><path d="m425.786 138.269c-28.625-28.793-57.38-57.722-86.134-86.523-1.286-1.29-3.45-1.902-4.584-1.902h-239.155c-28.232 0-51.203 22.97-51.203 51.203v353.739c0 28.232 22.97 51.198 51.203 51.198h280.552c28.232 0 51.203-22.965 51.203-51.198v-311.953c0-1.272-.653-3.328-1.882-4.564zm-84.242-66.269c21.376 21.434 42.726 42.89 64.068 64.357h-49.957c-7.782 0-14.111-6.329-14.111-14.106zm34.921 421.03h-280.552c-21.093 0-38.25-17.157-38.25-38.245v-353.739c0-21.093 17.157-38.25 38.25-38.25h232.679v59.455c0 14.921 12.143 27.058 27.064 27.058h59.06v305.476c0 21.088-17.157 38.245-38.251 38.245z"/><path d="m98.17 139.372h89.342c7.62 0 13.818-6.198 13.818-13.818v-18.639c0-7.62-6.198-13.818-13.818-13.818h-89.342c-7.62 0-13.818 6.198-13.818 13.818v18.639c0 7.62 6.198 13.818 13.818 13.818zm-.865-32.457c0-.476.39-.865.865-.865h89.342c.476 0 .865.39.865.865v18.639c0 .476-.39.865-.865.865h-89.342c-.476 0-.865-.39-.865-.865z"/></g></g></g><g id="Layer_1"/></svg>