<?xml version="1.0" encoding="UTF-8"?>
<svg xmlns="http://www.w3.org/2000/svg" version="1.1" viewBox="0 0 512 512">
  <defs>
    <style>
      .cls-1 {
        fill: #fff;
      }

      .cls-2 {
        fill: #4590ff;
      }

      .cls-3 {
        fill: #e8edfc;
      }

      .cls-4 {
        fill: #cad9fc;
      }

      .cls-5 {
        fill: #7facfa;
      }

      .cls-6 {
        fill: #a4c2f7;
      }
    </style>
  </defs>
  <!-- Generator: Adobe Illustrator 28.7.0, SVG Export Plug-In . SVG Version: 1.2.0 Build 136)  -->
  <g>
    <g id="Layer_1">
      <g id="Page-1">
        <g id="_x30_31---University">
          <path id="Shape" class="cls-6" d="M137.8,461.2h236.9v33.8c0,4.7-3.8,8.5-8.5,8.5h-219.9c-4.7,0-8.5-3.8-8.5-8.5v-33.8Z"/>
          <path id="Shape-2" data-name="Shape" class="cls-5" d="M349.3,461.2v33.8c0,4.7-3.8,8.5-8.5,8.5h25.4c4.7,0,8.5-3.8,8.5-8.5v-33.8h-25.4Z"/>
          <path id="Shape-3" data-name="Shape" class="cls-6" d="M137.8,495.1H19.3c-4.7,0-8.5-3.8-8.5-8.5v-16.9c0-4.7,3.8-8.5,8.5-8.5h118.4v33.8Z"/>
          <path id="Shape-4" data-name="Shape" class="cls-6" d="M374.6,495.1h118.4c4.7,0,8.5-3.8,8.5-8.5v-16.9c0-4.7-3.8-8.5-8.5-8.5h-118.4v33.8Z"/>
          <path id="Shape-5" data-name="Shape" class="cls-5" d="M493.1,461.2h-25.4c4.7,0,8.5,3.8,8.5,8.5v16.9c0,4.7-3.8,8.5-8.5,8.5h25.4c4.7,0,8.5-3.8,8.5-8.5v-16.9c0-4.7-3.8-8.5-8.5-8.5Z"/>
          <path id="Rectangle-path" class="cls-3" d="M154.7,258.2h203v203h-203v-203Z"/>
          <path id="Rectangle-path-2" data-name="Rectangle-path" class="cls-4" d="M332.3,258.2h25.4v203h-25.4v-203Z"/>
          <path id="Shape-6" data-name="Shape" class="cls-3" d="M391.6,190.5v25.4c0,4.7-3.8,8.5-8.5,8.5h-253.8c-4.7,0-8.5-3.8-8.5-8.5v-25.4h270.7Z"/>
          <path id="Shape-7" data-name="Shape" class="cls-4" d="M366.2,190.5v25.4c0,4.7-3.8,8.5-8.5,8.5h25.4c4.7,0,8.5-3.8,8.5-8.5v-25.4h-25.4Z"/>
          <path id="Shape-8" data-name="Shape" class="cls-3" d="M391.6,190.5H120.8l37.2-44.7c3.2-3.9,8-6.1,13-6.1h162.7c4.5,0,8.8,1.8,12,5l45.8,45.8Z"/>
          <path id="Shape-9" data-name="Shape" class="cls-4" d="M345.8,144.8c-3.2-3.2-7.5-5-12-5h-25.4c4.5,0,8.8,1.8,12,5l45.8,45.8h25.4l-45.8-45.8Z"/>
          <path id="Rectangle-path-3" data-name="Rectangle-path" class="cls-4" d="M137.8,224.4h236.9v33.8h-236.9v-33.8Z"/>
          <path id="Rectangle-path-4" data-name="Rectangle-path" class="cls-6" d="M349.3,224.4h25.4v33.8h-25.4v-33.8Z"/>
          <path id="Rectangle-path-5" data-name="Rectangle-path" class="cls-3" d="M357.7,258.2h135.4v203h-135.4v-203Z"/>
          <path id="Rectangle-path-6" data-name="Rectangle-path" class="cls-4" d="M467.7,258.2h25.4v203h-25.4v-203Z"/>
          <path id="Shape-10" data-name="Shape" class="cls-3" d="M493.1,258.2h-118.4v-33.8h8.5c4.7,0,8.5-3.8,8.5-8.5v-8.5h65.6c6.4,0,12.3,3.6,15.1,9.4l20.7,41.4Z"/>
          <path id="Shape-11" data-name="Shape" class="cls-4" d="M472.3,216.8c-2.9-5.7-8.7-9.4-15.1-9.4h-25.4c6.4,0,12.3,3.6,15.1,9.4l20.7,41.4h25.4l-20.7-41.4Z"/>
          <path id="Rectangle-path-7" data-name="Rectangle-path" class="cls-3" d="M19.3,258.2h135.4v203H19.3v-203Z"/>
          <path id="Shape-12" data-name="Shape" class="cls-3" d="M137.8,224.4v33.8H19.3l20.7-41.4c2.9-5.7,8.7-9.4,15.1-9.4h65.6v8.5c0,4.7,3.8,8.5,8.5,8.5h8.5Z"/>
          <path id="Rectangle-path-8" data-name="Rectangle-path" class="cls-5" d="M222.4,351.3h67.7v110h-67.7v-110Z"/>
          <rect class="cls-5" x="180.1" y="131.3" width="152.3" height="8.5"/>
          <path id="Shape-13" data-name="Shape" class="cls-1" d="M19.3,495.1h25.4c-4.7,0-8.5-3.8-8.5-8.5v-16.9c0-4.7,3.8-8.5,8.5-8.5v-203l20.7-41.4c2.9-5.7,8.7-9.4,15.1-9.4h-25.4c-6.4,0-12.3,3.6-15.1,9.4l-20.7,41.4v203c-4.7,0-8.5,3.8-8.5,8.5v16.9c0,4.7,3.8,8.5,8.5,8.5Z"/>
          <path id="Rectangle-path-9" data-name="Rectangle-path" class="cls-1" d="M10.9,393.6h16.9v67.7H10.9v-67.7Z"/>
          <g>
            <path id="Shape-14" data-name="Shape" class="cls-2" d="M19.5,435.9c-4.7,0-8.5-3.7-8.5-8.4s3.7-8.5,8.4-8.5h0c4.7,0,8.5,3.8,8.5,8.5s-3.8,8.5-8.5,8.5Z"/>
            <path id="Shape-15" data-name="Shape" class="cls-2" d="M501.5,455.1v-196.9c0-1.3-.4-2.6-1-3.7h0l-20.7-41.4c-4.3-8.6-13.1-14.1-22.7-14.1h-57.2v-8.5c0-2.3-.9-4.4-2.5-6l-45.8-45.8c-3-3-6.8-5.2-10.9-6.3v-1.1h-169.7c-7.5,0-14.7,3.4-19.5,9.1l-37.2,44.7c-1.3,1.5-2,3.4-2,5.4v8.5h-57.2c-9.6,0-18.4,5.4-22.7,14l-20.7,41.4h0c-.6,1.2-1,2.5-1,3.8v135.4c0,4.7,3.8,8.5,8.5,8.5s8.5-3.8,8.5-8.5v-126.9h118.4v186.1H19.3c-3.1,0-6,.8-8.5,2.3-5.1,2.9-8.5,8.4-8.5,14.7v16.9c0,9.3,7.6,16.9,16.9,16.9h112.3c3,5.2,8.6,8.4,14.6,8.5h220c6,0,11.6-3.2,14.6-8.5h112.3c9.3,0,16.9-7.6,16.9-16.9v-16.9c0-6-3.2-11.6-8.5-14.6ZM383.1,486.6v-16.9h110v16.9h-110ZM366.2,495.1h-220v-25.4h220v25.4ZM55.2,215.9h57.2c0,9.3,7.6,16.9,16.9,16.9v16.9H33l14.6-29.2c1.4-2.9,4.4-4.7,7.6-4.7ZM171.1,148.2h162.7c2.3,0,4.4.9,6,2.5l31.4,31.4h-232.2l25.7-30.8c1.6-1.9,4-3,6.5-3ZM457.2,215.9c3.2,0,6.1,1.8,7.6,4.7l14.6,29.2h-96.3v-16.9c9.3,0,16.9-7.6,16.9-16.9h57.2ZM484.6,452.8h-118.4v-186.1h118.4v186.1ZM383.1,215.9h-253.8v-16.9h253.8v16.9ZM146.2,232.8h220v16.9h-220v-16.9ZM163.1,266.7h186.1v186.1h-50.8v-101.5c0-4.7-3.8-8.5-8.5-8.5h-67.7c-4.7,0-8.5,3.8-8.5,8.5v101.5h-50.8v-186.1ZM281.6,359.7v93.1h-50.8v-93.1h50.8ZM129.3,486.6H19.3v-16.9h110v16.9Z"/>
            <path id="Shape-16" data-name="Shape" class="cls-2" d="M230.8,283.6c-4.7,0-8.5,3.8-8.5,8.5v16.9c0,4.7,3.8,8.5,8.5,8.5s8.5-3.8,8.5-8.5v-16.9c0-4.7-3.8-8.5-8.5-8.5Z"/>
            <path id="Shape-17" data-name="Shape" class="cls-2" d="M112.4,325.9c4.7,0,8.5-3.8,8.5-8.5v-16.9c0-4.7-3.8-8.5-8.5-8.5s-8.5,3.8-8.5,8.5v16.9c0,4.7,3.8,8.5,8.5,8.5Z"/>
            <path id="Shape-18" data-name="Shape" class="cls-2" d="M61.6,325.9c4.7,0,8.5-3.8,8.5-8.5v-16.9c0-4.7-3.8-8.5-8.5-8.5s-8.5,3.8-8.5,8.5v16.9c0,4.7,3.8,8.5,8.5,8.5Z"/>
            <path id="Shape-19" data-name="Shape" class="cls-2" d="M103.9,368.2c0,4.7,3.8,8.5,8.5,8.5s8.5-3.8,8.5-8.5v-16.9c0-4.7-3.8-8.5-8.5-8.5s-8.5,3.8-8.5,8.5v16.9Z"/>
            <path id="Shape-20" data-name="Shape" class="cls-2" d="M53.2,368.2c0,4.7,3.8,8.5,8.5,8.5s8.5-3.8,8.5-8.5v-16.9c0-4.7-3.8-8.5-8.5-8.5s-8.5,3.8-8.5,8.5v16.9Z"/>
            <path id="Shape-21" data-name="Shape" class="cls-2" d="M103.9,418.9c0,4.7,3.8,8.5,8.5,8.5s8.5-3.8,8.5-8.5v-16.9c0-4.7-3.8-8.5-8.5-8.5s-8.5,3.8-8.5,8.5v16.9Z"/>
            <path id="Shape-22" data-name="Shape" class="cls-2" d="M53.2,418.9c0,4.7,3.8,8.5,8.5,8.5s8.5-3.8,8.5-8.5v-16.9c0-4.7-3.8-8.5-8.5-8.5s-8.5,3.8-8.5,8.5v16.9Z"/>
            <path id="Shape-23" data-name="Shape" class="cls-2" d="M450.8,292.1c-4.7,0-8.5,3.8-8.5,8.5v16.9c0,4.7,3.8,8.5,8.5,8.5s8.5-3.8,8.5-8.5v-16.9c0-4.7-3.8-8.5-8.5-8.5Z"/>
            <path id="Shape-24" data-name="Shape" class="cls-2" d="M400,292.1c-4.7,0-8.5,3.8-8.5,8.5v16.9c0,4.7,3.8,8.5,8.5,8.5s8.5-3.8,8.5-8.5v-16.9c0-4.7-3.8-8.5-8.5-8.5Z"/>
            <path id="Shape-25" data-name="Shape" class="cls-2" d="M450.8,342.8c-4.7,0-8.5,3.8-8.5,8.5v16.9c0,4.7,3.8,8.5,8.5,8.5s8.5-3.8,8.5-8.5v-16.9c0-4.7-3.8-8.5-8.5-8.5Z"/>
            <path id="Shape-26" data-name="Shape" class="cls-2" d="M400,342.8c-4.7,0-8.5,3.8-8.5,8.5v16.9c0,4.7,3.8,8.5,8.5,8.5s8.5-3.8,8.5-8.5v-16.9c0-4.7-3.8-8.5-8.5-8.5Z"/>
            <path id="Shape-27" data-name="Shape" class="cls-2" d="M450.8,393.6c-4.7,0-8.5,3.8-8.5,8.5v16.9c0,4.7,3.8,8.5,8.5,8.5s8.5-3.8,8.5-8.5v-16.9c0-4.7-3.8-8.5-8.5-8.5Z"/>
            <path id="Shape-28" data-name="Shape" class="cls-2" d="M400,393.6c-4.7,0-8.5,3.8-8.5,8.5v16.9c0,4.7,3.8,8.5,8.5,8.5s8.5-3.8,8.5-8.5v-16.9c0-4.7-3.8-8.5-8.5-8.5Z"/>
            <path id="Shape-29" data-name="Shape" class="cls-2" d="M281.6,283.6c-4.7,0-8.5,3.8-8.5,8.5v16.9c0,4.7,3.8,8.5,8.5,8.5s8.5-3.8,8.5-8.5v-16.9c0-4.7-3.8-8.5-8.5-8.5Z"/>
          </g>
        </g>
      </g>
      <g id="Layer_2">
        <path class="cls-3" d="M313.9,83.3c-1.6-1.6-2.5-3.8-2.5-6.1v-7.7c0-9.8-7.9-17.7-17.7-17.7h-7.7c-2.3,0-4.5-.9-6.1-2.5l-6.6-6.6c-6.9-6.9-18.1-6.9-25,0l-6.6,6.6c-1.6,1.6-3.8,2.5-6.1,2.5h-7.7c-9.8,0-17.7,7.9-17.7,17.7v7.7c0,2.3-.9,4.5-2.5,6.1l-6.6,6.6c-6.9,6.9-6.9,18.1,0,25l6.6,6.6c1.6,1.6,2.5,3.8,2.5,6.1v7.7c0,9.8,7.9,17.7,17.7,17.7h7.7c2.3,0,4.5.9,6.1,2.5l6.6,6.6c6.9,6.9,18.1,6.9,25,0l6.6-6.6c1.6-1.6,3.8-2.5,6.1-2.5h7.7c9.8,0,17.7-7.9,17.7-17.7v-7.7c0-2.3.9-4.5,2.5-6.1l6.6-6.6c6.9-6.9,6.9-18.1,0-25l-6.6-6.6Z"/>
        <g>
          <path class="cls-2" d="M248.1,118.3c-1.4,0-2.7-.5-3.7-1.5l-13.8-13.8c-2-2.1-1.8-5.4.3-7.3,2-1.9,5.1-1.9,7.1,0l10.2,10.2,24-24c2.1-2,5.4-1.8,7.3.3,1.9,2,1.9,5.1,0,7.1l-27.7,27.7c-1,1-2.3,1.5-3.7,1.5h0Z"/>
          <path class="cls-2" d="M255,173.6c-5.4,0-10.5-2.1-14.3-5.9l-7.5-7.6c-1.9-1.9-4.4-2.9-7-2.9h-8.8c-11.2,0-20.3-9.1-20.3-20.3v-8.8c0-2.6-1-5.1-2.9-7l-7.6-7.5c-7.9-7.9-7.9-20.7,0-28.7l7.6-7.5c1.9-1.9,2.9-4.4,2.9-7v-8.8c0-11.2,9.1-20.3,20.3-20.3h8.8c2.6,0,5.1-1,7-2.9l7.5-7.6c7.9-7.9,20.7-7.9,28.7,0l7.5,7.6c1.9,1.9,4.4,2.9,7,2.9h8.8c11.2,0,20.3,9.1,20.3,20.3v8.8c0,2.6,1,5.1,2.9,7l7.5,7.5c7.9,7.9,7.9,20.7,0,28.7l-7.5,7.5c-1.9,1.9-2.9,4.4-2.9,7v8.8c0,11.2-9.1,20.3-20.3,20.3h-8.8c-2.6,0-5.1,1-7,2.9l-7.5,7.5c-3.8,3.8-9,5.9-14.3,5.9h0ZM217.3,51.6c-5.5,0-9.9,4.4-9.9,9.9v8.8c0,5.4-2.1,10.6-5.9,14.3l-7.5,7.5c-3.9,3.9-3.9,10.1,0,14l7.5,7.5c3.8,3.8,6,9,5.9,14.3v8.8c0,5.5,4.4,9.9,9.9,9.9h8.8c5.4,0,10.5,2.1,14.3,5.9l7.5,7.5c3.9,3.9,10.1,3.9,14,0l7.5-7.5c3.8-3.8,9-6,14.3-5.9h8.8c5.5,0,9.9-4.4,9.9-9.9v-8.9c0-5.4,2.1-10.5,5.9-14.3l7.5-7.5c3.9-3.9,3.9-10.1,0-14l-7.5-7.5c-3.8-3.8-6-9-5.9-14.3v-8.9c0-5.5-4.4-9.9-9.9-9.9h-8.8c-5.4,0-10.6-2.1-14.3-5.9l-7.5-7.5c-3.9-3.9-10.1-3.9-14,0l-7.5,7.5c-3.8,3.8-9,6-14.3,5.9h-8.9Z"/>
        </g>
      </g>
    </g>
  </g>
</svg>