<svg height="512" viewBox="0 0 60 60" width="512" xmlns="http://www.w3.org/2000/svg"><g id="Page-1" fill="none" fill-rule="evenodd"><g id="031---Video-Call-Interview" fill-rule="nonzero" transform="translate(-1)"><g id="Icons" transform="translate(1 1)"><path id="Shape" d="m53 2.18v23.18c-3.0171668-3.7512436-8.4533158-4.4611936-12.3326663-1.6106211-3.8793506 2.8505725-4.8258795 8.2505565-2.1473337 12.2506211h-37.52v-33.82c-.04521019-1.152631.84774936-2.12595691 2-2.18h48c1.1522506.05404309 2.0452102 1.027369 2 2.18z" fill="#e8edfc"/><path id="Shape" d="m44.486 22.137c-3.5393877-.5980798-7.0952461.96712-9.0446409 3.9812243-1.9493947 3.0141043-1.9184774 6.8990784.0786409 9.8817757h3c-1.6965451-2.533244-1.993208-5.7538185-.7879839-8.5543587 1.2052242-2.8005401 3.7479874-4.7991558 6.7539839-5.3086413z" fill="#cad9fc"/><path id="Shape" d="m51 0h-3c1.1522506.05404309 2.0452102 1.027369 2 2.18v20.761c1.1633955.5795396 2.1870002 1.4049061 3 2.419v-23.18c.0452102-1.152631-.8477494-2.12595691-2-2.18z" fill="#cad9fc"/><path id="Shape" d="m46 40h-5c-1.3511994-.0037306-2.6805784.3406681-3.86 1h-34.14c-1.15225064-.0540431-2.04521019-1.027369-2-2.18v-2.82h37.52c1.6671868 2.5006886 4.4745131 4.0019326 7.48 4z" fill="#a4c2f7"/><path id="Shape" d="m38.52 36h-3c1.6671868 2.5006886 4.4745131 4.0019326 7.48 4l3 .0000019c-3.0054869.0019307-5.8128132-1.4993133-7.48-4.0000019z" fill="#7facfa"/><path id="Shape" d="m34.14 41h3c1.1794216-.6593319 2.5088006-1.0037306 3.86-1h-3c-1.3511994-.0037306-2.6805784.3406681-3.86 1z" fill="#cad9fc"/><path id="Shape" d="m37.14 41c-1.9306942 1.0589148-3.3383247 2.8682085-3.89 5h-16.25l3-5z" fill="#a4c2f7"/><path id="Shape" d="m34.14 41c-1.9306942 1.0589148-3.3383247 2.8682085-3.89 5h3c.5516753-2.1317915 1.9593058-3.9410852 3.89-5z" fill="#7facfa"/><path id="Shape" d="m33.25 46c-.1648723.6539226-.2488337 1.3256142-.25 2v2h-19c-1.1011688-.0081672-1.9918328-.8988312-2-2 .0032948-1.1032019.8967981-1.9967052 2-2z" fill="#a4c2f7"/><path id="Shape" d="m30.25 46c-.1648723.6539226-.2488337 1.3256142-.25 2v2h3v-2c.0011663-.6743858.0851277-1.3460774.25-2z" fill="#7facfa"/><path id="Shape" d="m55 31c.0127144 4.3992986-3.1480913 8.1669273-7.4826196 8.9191602-4.3345282.7522328-8.5799764-1.7300824-10.0503087-5.8764197-1.4703324-4.1463372.2628113-8.7487205 4.1028953-10.8952863s8.6683548-1.2119429 11.430033 2.2125458c1.2904545 1.5968468 1.9961507 3.5869102 2 5.64z" fill="#e8edfc"/><path id="Shape" d="m53 25.36c-2.0305019-2.5567148-5.2994259-3.7941757-8.514-3.223 4.3299042.7195042 7.5066297 4.4614594 7.5138106 8.850731.007181 4.3892716-3.1572838 8.1416011-7.4848106 8.875269 3.6832738.6262475 7.3694911-1.0934766 9.2561525-4.3182557 1.8866615-3.2247792 1.5795538-7.2808035-.7711525-10.1847443z" fill="#cad9fc"/><path id="Shape" d="m59 48v7c0 1.6568542-1.3431458 3-3 3h-20c-1.6568542 0-3-1.3431458-3-3v-7c.0027581-4.417135 3.582865-7.9972419 8-8h10c4.418278 0 8 3.581722 8 8z" fill="#e8edfc"/><path id="Shape" d="m51 40h-3c4.418278 0 8 3.581722 8 8v7c0 1.6568542-1.3431458 3-3 3h3c1.6568542 0 3-1.3431458 3-3v-7c0-4.418278-3.581722-8-8-8z" fill="#cad9fc"/><circle id="Oval" cx="17" cy="18" fill="#e8edfc" r="8"/><path id="Shape" d="m24.81 26.97c-.6643785 3.1905885-1.8683234 6.244415-3.56 9.03h-8.5c-1.6916766-2.785585-2.8956215-5.8394115-3.56-9.03 1.167967-.6392325 2.4785509-.9728982 3.81-.97h8c1.3314491-.0028982 2.642033.3307675 3.81.97z" fill="#e8edfc"/><path id="Shape" d="m12.75 36h-7.75000765l.00000765-2c-.00405761-2.9360106 1.60562342-5.6367404 4.19-7.03.6643785 3.1905885 1.8683234 6.244415 3.56 9.03z" fill="#a4c2f7"/><path id="Shape" d="m29 34 .0000077 2h-7.7500077c1.6916766-2.785585 2.8956215-5.8394115 3.56-9.03 2.5843766 1.3932596 4.1940576 4.0939894 4.19 7.03z" fill="#a4c2f7"/><path id="Shape" d="m19 30h-4l-1-4h6z" fill="#e8edfc"/><path id="Shape" d="m20.2 36-1.2-6h-4l-1.2 6z" fill="#e8edfc"/><path id="Shape" d="m49 6v10c-.0032948 1.1032019-.8967981 1.9967052-2 2h-7l-5.35 3.81c-.3187465.2245677-.735877.2534095-1.0824972.0748476-.3466203-.178562-.5653023-.5349436-.5675028-.9248476v-2.96h-2c-1.1032019-.0032948-1.9967052-.8967981-2-2v-10c.0032948-1.10320187.8967981-1.9967052 2-2h16c1.1032019.0032948 1.9967052.89679813 2 2z" fill="#a4c2f7"/><path id="Shape" d="m47 4h-3c1.1032019.0032948 1.9967052.89679813 2 2v10c-.0032948 1.1032019-.8967981 1.9967052-2 2h3c1.1032019-.0032948 1.9967052-.8967981 2-2v-10c-.0032948-1.10320187-.8967981-1.9967052-2-2z" fill="#7facfa"/></g><g id="Icons_copy_2" fill="#fff" transform="translate(1 1)"><path id="Shape" d="m20 46 3-5h-3l-3 5z"/><path id="Shape" d="m12 48c.0081672 1.1011688.8988312 1.9918328 2 2h3c-1.1011688-.0081672-1.9918328-.8988312-2-2 .0032948-1.1032019.8967981-1.9967052 2-2h-3c-1.1032019.0032948-1.9967052.8967981-2 2z"/><path id="Shape" d="m3 41h3c-1.15225064-.0540431-2.04521019-1.027369-2-2.18v-36.64c-.04521019-1.152631.84774936-2.12595691 2-2.18h-3c-1.15225064.05404309-2.04521019 1.027369-2 2.18v36.64c-.04521019 1.152631.84774936 2.1259569 2 2.18z"/></g><g id="Icons_copy"><path id="Rectangle-path" d="m1 3.18h2v8h-2z" fill="#fff"/><g fill="#428dff"><circle id="Oval" cx="2" cy="7.18" r="1"/><path id="Shape" d="m52.913 40.046c2.1531139-1.5698967 3.5864015-3.9379649 3.9787108-6.5735993.3923093-2.6356343-.2891591-5.3184801-1.8917108-7.4474007v-22.845c.0448765-1.70471854-1.2955594-3.12558061-3-3.18h-48c-1.7044406.05441939-3.04487651 1.47528146-3 3.18 0 .55228475.44771525 1 1 1s1-.44771525 1-1c-.0369584-.59783012.40420433-1.11840214 1-1.18h48c.5957957.06159786 1.0369584.58216988 1 1.18v20.839c-3.6260518-2.7366827-8.6423993-2.6807172-12.2064918.1361832-3.5640926 2.8169004-4.7774475 7.6846149-2.9525082 11.8448168h-6.841v-1c-.0079317-4.3986493-3.1918055-8.1481881-7.531-8.869 3.063953-2.344347 4.2929417-6.3807447 3.0553641-10.0348072s-4.666415-6.11292244-8.5243641-6.11292244-7.2867865 2.45885994-8.5243641 6.11292244c-1.23757756 3.6540625-.00858888 7.6904602 3.0553641 10.0348072-4.33919453.7208119-7.52306831 4.4703507-7.531 8.869v1h-2v-24.82c0-.5522847-.44771525-1-1-1s-1 .4477153-1 1v28.64c-.04487651 1.7047185 1.2955594 3.1255806 3 3.18h15.234l-1.8 3h-2.434c-1.6568542 0-3 1.3431458-3 3 .0082058 1.6534434 1.3465566 2.9917942 3 3h18v4c0 2.209139 1.790861 4 4 4h20c2.209139 0 4-1.790861 4-4v-7c-.0057888-4.614894-3.4965232-8.4798668-8.087-8.954zm-5.913-16.046c4.418278 0 8 3.581722 8 8s-3.581722 8-8 8-8-3.581722-8-8c.0049599-4.4162219 3.5837781-7.9950401 8-8zm-18 11v1h-5.009c1.0595928-2.0324541 1.882314-4.1798504 2.452-6.4 1.6174371 1.32669 2.5556532 3.3080613 2.557 5.4zm-7.975-3.975.756-3.025h.219c.9102332.0000388 1.8116069.1787507 2.653.526-.5882207 2.4601679-1.5022973 4.8307808-2.718 7.049zm-1.306-3.025-.5 2h-2.438l-.5-2zm-5.5 0 .756 3.025-.91 4.55c-1.2157027-2.2182192-2.1297793-4.5888321-2.718-7.049.8413931-.3472493 1.7427668-.5259612 2.653-.526zm2.6 4h2.36l.8 4h-3.959zm-5.819-13c0-3.8659932 3.1340068-7 7-7s7 3.1340068 7 7-3.1340068 7-7 7c-3.8641657-.0044086-6.9955914-3.1358343-7-7zm-4 16c.00134684-2.0919387.93956288-4.07331 2.557-5.4.569686 2.2201496 1.3924072 4.3675459 2.452 6.4h-5.009zm-4 4.82v-1.82h36.019c.5864675.7786767 1.2830956 1.4678939 2.068 2.046-1.1127766.1152407-2.1939257.438873-3.187.954h-33.9c-.59579567-.0615979-1.0369584-.5821699-1-1.18zm18.566 3.18h13.745c-.7858492.8735388-1.3926466 1.8927954-1.786 3h-13.759zm-6.566 7c-.2694422.0008733-.5272084-.1099083-.712-.306-.1865985-.1823963-.2906276-.4330776-.288-.694 0-.5522847.4477153-1 1-1h18.059c-.0383516.3319677-.0580492.6658256-.059 1v1zm44 6c0 1.1045695-.8954305 2-2 2h-20c-1.1045695 0-2-.8954305-2-2v-7c.0044086-3.8641657 3.1358343-6.9955914 7-7h10c3.8641657.0044086 6.9955914 3.1358343 7 7z"/><path id="Shape" d="m34.108 23.772c.6788814.3530549 1.4982849.2962913 2.122-.147l5.09-3.625h6.68c1.6568542 0 3-1.3431458 3-3v-10c0-1.65685425-1.3431458-3-3-3h-16c-1.6568542 0-3 1.34314575-3 3v10c0 1.6568542 1.3431458 3 3 3h1v1.96c-.0006101.7642481.4274404 1.4642729 1.108 1.812zm-2.108-5.772c-.5522847 0-1-.4477153-1-1v-10c0-.55228475.4477153-1 1-1h16c.5522847 0 1 .44771525 1 1v10c0 .5522847-.4477153 1-1 1h-7c-.207971.00018-.4107116.0651968-.58.186l-5.42 3.774v-2.96c0-.5522847-.4477153-1-1-1z"/><path id="Shape" d="m34 10h5c.5522847 0 1-.44771525 1-1s-.4477153-1-1-1h-5c-.5522847 0-1 .44771525-1 1s.4477153 1 1 1z"/><path id="Shape" d="m46 14c.5522847 0 1-.4477153 1-1s-.4477153-1-1-1h-12c-.5522847 0-1 .4477153-1 1s.4477153 1 1 1z"/></g></g></g></g></svg>