<svg width="67" height="75" viewBox="0 0 67 75" fill="none" xmlns="http://www.w3.org/2000/svg">
<path d="M16.4267 21.1811H42.5134V25.5548H16.4267V21.1811Z" fill="#FF9DEF" stroke="#575757" stroke-width="1.83"/>
<path d="M11.1876 67.9147L11.1995 67.915H11.2113H66.085V73.5294H11.1667C9.09901 73.5294 6.5154 72.8385 4.46825 71.2162C2.45409 69.6201 0.915 67.0913 0.915 63.2778V55.8333V44.6667V22.3333V11.1667C0.915 7.35315 2.45409 4.82435 4.46825 3.22823C6.5154 1.60597 9.09901 0.915 11.1667 0.915H59.5556C63.1558 0.915 66.085 3.84417 66.085 7.44445V48.3889V55.8333V58.6406H63.2778H59.5556H11.2113H11.1995L11.1876 58.6409C10.2416 58.6654 9.07647 58.864 8.13058 59.5804C7.13553 60.334 6.52944 61.5472 6.52944 63.2778C6.52944 65.0084 7.13553 66.2216 8.13058 66.9752C9.07647 67.6916 10.2416 67.8901 11.1876 67.9147ZM11.1667 6.52945H11.1545L11.1423 6.52977C10.2154 6.55449 9.06164 6.75437 8.12229 7.4713C7.13524 8.22465 6.52944 9.43623 6.52944 11.1667V22.3333V44.6667V52.1111V53.0261H7.44444H59.5556H60.4706V52.1111V48.3889V7.44445V6.52945H59.5556H11.1667Z" fill="#FF9DEF" stroke="#575757" stroke-width="1.83"/>
</svg>
