<svg id="Layer_1" data-name="Layer 1" xmlns="http://www.w3.org/2000/svg" viewBox="0 0 28.6 31.4"><defs><style>.cls-1{fill:#3cc8b4;}.cls-2{fill:#1eaa96;}.cls-3{fill:#f0f0f0;}.cls-4{fill:#d2d2d2;}.cls-5{fill:#fab400;}.cls-6{fill:#dc9600;}.cls-7{fill:#be7800;}.cls-8{fill:#fa6450;}.cls-9{fill:#505050;}.cls-10{fill:#3c3c3c;}</style></defs><g id="Icons"><path class="cls-1" d="M14,22.7V19.3l-3.4-.8V15.6l10.1-2.5,2.3.5V4.8L18.5.3H1.7V29.4h8.9V22.7Z" transform="translate(-1.7 -0.3)"/><path class="cls-2" d="M23,4.8H18.5V.3Z" transform="translate(-1.7 -0.3)"/><path class="cls-2" d="M1.7.3H3.9V29.4H1.7Z" transform="translate(-1.7 -0.3)"/><path class="cls-3" d="M6.2,5.9v5.6H7.3V9.3H9.5V5.9ZM8.4,8.2H7.3V7H8.4Z" transform="translate(-1.7 -0.3)"/><path class="cls-3" d="M11.8,8.2V5.9H10.6v5.6h1.2V9.3h1.1v2.2H14V8.2Z" transform="translate(-1.7 -0.3)"/><path class="cls-3" d="M15.1,5.9v5.6h2.3a1.1,1.1,0,0,0,1.1-1.1V7a1.1,1.1,0,0,0-1.1-1.1Zm1.7,4.5h-.6V7h.6a.6.6,0,0,1,.6.6V9.8A.6.6,0,0,1,16.8,10.4Z" transform="translate(-1.7 -0.3)"/><path class="cls-3" d="M29.7,23.8v4.5H11.8V23.8Z" transform="translate(-1.7 -0.3)"/><path class="cls-4" d="M14,23.8v4.5H11.8V23.8Z" transform="translate(-1.7 -0.3)"/><path class="cls-5" d="M23,23.8v4.5H18.5V23.8Z" transform="translate(-1.7 -0.3)"/><path class="cls-6" d="M19.6,23.8v4.5H18.5V23.8Z" transform="translate(-1.7 -0.3)"/><path class="cls-7" d="M23,28.3v3.4l-2.3-2.3-2.2,2.3V28.3Z" transform="translate(-1.7 -0.3)"/><path class="cls-8" d="M29.7,19.4V17.6H28.6v1.8a.9.9,0,0,0-.6.9,1.1,1.1,0,0,0,1.1,1.1,1.1,1.1,0,0,0,1.2-1.1A1,1,0,0,0,29.7,19.4Z" transform="translate(-1.7 -0.3)"/><path class="cls-8" d="M28.6,22.7h1.1V22a.6.6,0,0,0-.6-.6.6.6,0,0,0-.5.6Z" transform="translate(-1.7 -0.3)"/><path class="cls-9" d="M15.1,16.5H26.3v6.2H15.1Z" transform="translate(-1.7 -0.3)"/><path class="cls-10" d="M15.1,16.5h2.3v6.2H15.1Z" transform="translate(-1.7 -0.3)"/><path class="cls-10" d="M11.8,16.5v1.1l8.9,2.2,9-2.2V16.5Z" transform="translate(-1.7 -0.3)"/><path class="cls-9" d="M20.7,14.2l-8.9,2.3,8.9,2.2,9-2.2Z" transform="translate(-1.7 -0.3)"/><path class="cls-2" d="M6.2,12.6v1.2H18l.5-.2v-1Z" transform="translate(-1.7 -0.3)"/><path class="cls-2" d="M6.2,16h4.4v-.4l2.9-.7H6.2Z" transform="translate(-1.7 -0.3)"/><path class="cls-2" d="M6.2,17.1h4.4v1.1H6.2Z" transform="translate(-1.7 -0.3)"/><path class="cls-2" d="M6.2,19.4H14v1.1H6.2Z" transform="translate(-1.7 -0.3)"/><path class="cls-2" d="M6.2,22.7H14V21.6H6.2Z" transform="translate(-1.7 -0.3)"/><path class="cls-2" d="M6.2,23.8h4.4V25H6.2Z" transform="translate(-1.7 -0.3)"/></g></svg>